<mxfile host="app.diagrams.net" modified="2021-09-18T00:20:20.998Z" agent="5.0 (Windows NT 10.0; Win64; x64) AppleWebKit/537.36 (KHTML, like Gecko) Chrome/93.0.4577.82 Safari/537.36" etag="XU2fjF-3owH9d2F0KLUF" version="14.8.2" type="github">
  <diagram id="e5D5xJizQrYGkKH679qA" name="Page-1">
    <mxGraphModel dx="1038" dy="489" grid="1" gridSize="10" guides="1" tooltips="1" connect="1" arrows="1" fold="1" page="1" pageScale="1" pageWidth="827" pageHeight="1169" math="0" shadow="0">
      <root>
        <mxCell id="0" />
        <mxCell id="1" parent="0" />
        <mxCell id="EFpp2HV2Ul37okye-qru-1" value="" style="ellipse;html=1;shape=startState;fillColor=#000000;strokeColor=#ff0000;" vertex="1" parent="1">
          <mxGeometry x="90" y="50" width="30" height="30" as="geometry" />
        </mxCell>
        <mxCell id="EFpp2HV2Ul37okye-qru-2" value="" style="edgeStyle=orthogonalEdgeStyle;html=1;verticalAlign=bottom;endArrow=open;endSize=8;strokeColor=#ff0000;" edge="1" source="EFpp2HV2Ul37okye-qru-1" parent="1">
          <mxGeometry relative="1" as="geometry">
            <mxPoint x="160" y="65" as="targetPoint" />
          </mxGeometry>
        </mxCell>
        <mxCell id="EFpp2HV2Ul37okye-qru-3" value="" style="rounded=1;whiteSpace=wrap;html=1;" vertex="1" parent="1">
          <mxGeometry x="160" y="35" width="120" height="60" as="geometry" />
        </mxCell>
        <mxCell id="EFpp2HV2Ul37okye-qru-4" value="Entrar na APP" style="text;html=1;strokeColor=none;fillColor=none;align=center;verticalAlign=middle;whiteSpace=wrap;rounded=0;" vertex="1" parent="1">
          <mxGeometry x="200" y="55" width="40" height="20" as="geometry" />
        </mxCell>
        <mxCell id="EFpp2HV2Ul37okye-qru-5" value="" style="rounded=1;whiteSpace=wrap;html=1;" vertex="1" parent="1">
          <mxGeometry x="349" y="35" width="120" height="60" as="geometry" />
        </mxCell>
        <mxCell id="EFpp2HV2Ul37okye-qru-6" value="" style="endArrow=classic;html=1;exitX=1;exitY=0.5;exitDx=0;exitDy=0;" edge="1" parent="1" source="EFpp2HV2Ul37okye-qru-3">
          <mxGeometry width="50" height="50" relative="1" as="geometry">
            <mxPoint x="390" y="270" as="sourcePoint" />
            <mxPoint x="350" y="65" as="targetPoint" />
            <Array as="points" />
          </mxGeometry>
        </mxCell>
        <mxCell id="EFpp2HV2Ul37okye-qru-7" value="selecionar aba de favoritos" style="text;html=1;strokeColor=none;fillColor=none;align=center;verticalAlign=middle;whiteSpace=wrap;rounded=0;" vertex="1" parent="1">
          <mxGeometry x="389" y="50" width="40" height="20" as="geometry" />
        </mxCell>
        <mxCell id="EFpp2HV2Ul37okye-qru-8" value="" style="rounded=1;whiteSpace=wrap;html=1;" vertex="1" parent="1">
          <mxGeometry x="354" y="160" width="120" height="60" as="geometry" />
        </mxCell>
        <mxCell id="EFpp2HV2Ul37okye-qru-9" value="selecionar uma rota salva" style="text;html=1;strokeColor=none;fillColor=none;align=center;verticalAlign=middle;whiteSpace=wrap;rounded=0;" vertex="1" parent="1">
          <mxGeometry x="394" y="180" width="40" height="20" as="geometry" />
        </mxCell>
        <mxCell id="EFpp2HV2Ul37okye-qru-10" value="" style="rounded=1;whiteSpace=wrap;html=1;" vertex="1" parent="1">
          <mxGeometry x="160" y="160" width="120" height="60" as="geometry" />
        </mxCell>
        <mxCell id="EFpp2HV2Ul37okye-qru-11" value="iniciar rota" style="text;html=1;strokeColor=none;fillColor=none;align=center;verticalAlign=middle;whiteSpace=wrap;rounded=0;" vertex="1" parent="1">
          <mxGeometry x="200" y="180" width="40" height="20" as="geometry" />
        </mxCell>
        <mxCell id="EFpp2HV2Ul37okye-qru-12" value="" style="endArrow=classic;html=1;exitX=0.5;exitY=1;exitDx=0;exitDy=0;" edge="1" parent="1" source="EFpp2HV2Ul37okye-qru-5">
          <mxGeometry width="50" height="50" relative="1" as="geometry">
            <mxPoint x="390" y="220" as="sourcePoint" />
            <mxPoint x="409" y="160" as="targetPoint" />
          </mxGeometry>
        </mxCell>
        <mxCell id="EFpp2HV2Ul37okye-qru-13" value="" style="endArrow=classic;html=1;entryX=1;entryY=0.5;entryDx=0;entryDy=0;exitX=0;exitY=0.5;exitDx=0;exitDy=0;" edge="1" parent="1" source="EFpp2HV2Ul37okye-qru-8" target="EFpp2HV2Ul37okye-qru-10">
          <mxGeometry width="50" height="50" relative="1" as="geometry">
            <mxPoint x="390" y="220" as="sourcePoint" />
            <mxPoint x="440" y="170" as="targetPoint" />
          </mxGeometry>
        </mxCell>
        <mxCell id="EFpp2HV2Ul37okye-qru-14" value="" style="endArrow=classic;html=1;exitX=0;exitY=0.5;exitDx=0;exitDy=0;" edge="1" parent="1" target="EFpp2HV2Ul37okye-qru-15">
          <mxGeometry width="50" height="50" relative="1" as="geometry">
            <mxPoint x="160" y="189.5" as="sourcePoint" />
            <mxPoint x="110" y="190" as="targetPoint" />
          </mxGeometry>
        </mxCell>
        <mxCell id="EFpp2HV2Ul37okye-qru-15" value="" style="ellipse;html=1;shape=endState;fillColor=#000000;strokeColor=#ff0000;" vertex="1" parent="1">
          <mxGeometry x="95" y="175" width="30" height="30" as="geometry" />
        </mxCell>
      </root>
    </mxGraphModel>
  </diagram>
</mxfile>
